<?xml version="1.0" encoding="utf-8"?>
<!-- Generator: Adobe Illustrator 19.0.0, SVG Export Plug-In . SVG Version: 6.00 Build 0)  -->
<svg version="1.1" xmlns="http://www.w3.org/2000/svg" xmlns:xlink="http://www.w3.org/1999/xlink" x="0px" y="0px"
	 viewBox="0 0 136.8 60.7" style="enable-background:new 0 0 136.8 60.7;" xml:space="preserve">
<style type="text/css">
	.st0{fill:#7A7A7A;}
	.st1{fill:#F7931E;stroke:#999999;stroke-miterlimit:10;}
</style>
<g id="Laag_3">
</g>
<g id="Laag_2">
</g>
<g id="Laag_1">
	<rect id="XMLID_1_" x="45.1" y="18.2" class="st0" width="2.8" height="21.7"/>
	<rect id="XMLID_2_" x="70.2" y="18.2" class="st0" width="2.8" height="21.7"/>
	<rect id="XMLID_8_" x="81.7" y="18.2" class="st0" width="2.8" height="21.7"/>
	<rect id="XMLID_9_" x="88.6" y="18.2" class="st0" width="2.8" height="21.7"/>
	<rect id="XMLID_10_" x="60" y="18.2" class="st0" width="2.8" height="21.7"/>
	<rect id="XMLID_11_" x="49.8" y="18.2" class="st0" width="2.8" height="21.7"/>
	<rect id="XMLID_12_" x="38.2" y="37.1" class="st0" width="9.7" height="2.8"/>
	<rect id="XMLID_13_" x="49.8" y="18.2" class="st0" width="9.7" height="2.8"/>
	<rect id="XMLID_14_" x="49.8" y="27.3" class="st0" width="6.2" height="2.8"/>
	<rect id="XMLID_15_" x="49.8" y="37.1" class="st0" width="9.7" height="2.8"/>
	<rect id="XMLID_16_" x="60" y="37.1" class="st0" width="9.7" height="2.8"/>
	<rect id="XMLID_17_" x="70.2" y="37.1" class="st0" width="9.7" height="2.8"/>
	<rect id="XMLID_18_" x="81.7" y="37.1" class="st0" width="9.7" height="2.8"/>
	<rect id="XMLID_19_" x="81.7" y="18.2" class="st0" width="9.7" height="2.8"/>
	<rect id="XMLID_20_" x="38.2" y="34.3" class="st0" width="2.8" height="5.7"/>
	<path id="XMLID_22_" class="st1" d="M4.4,36.8c0,0,11.5,52.5,122,0c0,0-107.5,28-105,0H4.4z"/>
	<path id="XMLID_21_" class="st1" d="M127.4,23.8c0,0-11.5-52.5-122,0c0,0,107.5-28,105,0H127.4z"/>
</g>
</svg>
