<?xml version="1.0" encoding="utf-8"?>
<!-- Generator: Adobe Illustrator 19.0.0, SVG Export Plug-In . SVG Version: 6.00 Build 0)  -->
<svg version="1.1" id="Laag_1" xmlns="http://www.w3.org/2000/svg" xmlns:xlink="http://www.w3.org/1999/xlink" x="0px" y="0px"
	 viewBox="0 0 1280 800" style="enable-background:new 0 0 1280 800;" xml:space="preserve">
<style type="text/css">
	.st0{fill-rule:evenodd;clip-rule:evenodd;}
	.st1{fill:#AFAEAC;stroke:#000000;stroke-miterlimit:10;}
	.st2{fill:#EAC7E7;stroke:#000000;stroke-miterlimit:10;}
	.st3{stroke:#000000;stroke-miterlimit:10;}
	.st4{fill:#ECBAF7;stroke:#000000;stroke-miterlimit:10;}
	.st5{fill:#FCB1F7;}
	.st6{font-family:'MyriadPro-Regular';}
	.st7{font-size:30px;}
	.st8{fill:none;stroke:#000000;stroke-miterlimit:10;}
</style>
<symbol  id="Vuil_x2C__vectorpakket_10" viewBox="-112.9 -86.4 225.7 172.8">
	<path id="XMLID_76_" class="st0" d="M-94.9,25.8C-98.6,21.1-89,23.6-94.9,25.8L-94.9,25.8z M-107.2-51c0.9-0.6,3.8-2.5,4.2-0.5
		C-103.7-50.8-107-49.1-107.2-51z M-89.2-53.3c3.9-1.3,7.9,2.2,7.1,7.3C-87.8-36-98.5-50.3-89.2-53.3z M-52.7,45.5
		c0.8,2.4-1.5,4.9-2.7,5.2C-54.2,49.2-54.4,46.8-52.7,45.5z M-37.6,27.1c-1.1,2-1,4.5-1.8,6.7c0,1.5,0.6,1.3,0.5,2.9
		c-2.3,0.8-1.4,6.3-3.6,5.1C-41,37.1-41.1,29.7-37.6,27.1z M18.6,29.6c-1.3-0.1-3.7-1.4-3.1-2.9C16.5,27.8,18.1,27.8,18.6,29.6z
		 M13.3,2.1c0.3,1.5-0.3,2.5-1.1,3.4C12.3,4.2,11.8,2.6,13.3,2.1z M5.6-60.1c0.7,1.2-0.2,1.7-1.1,2.1C4.3-59,4.6-59.7,5.6-60.1z
		 M108.6,41.9c-2.9,1.5-4.9-1.4-6.9-2.6c-10.8-6.2-23.4-8.5-33.8-15.4c-6.3-2.8-13.1-4.2-19.7-6.8c-3.7-1.5-7.1-3.9-10.9-5.3
		c-5.8-2.1-11.8-3.4-16.8-6C15.9,3.4,6.1-3.6,2,2.2c4,6.5,2.6,16.1,9.5,20.1c-2.1,0.3-1.7-1.1-3.8,0.3c-2.6-1.8-4-6-7-6.9
		c-1.3,1.7-5.3,2.1-6.1,4.1c5.3,4.8,11,13.2,11.7,21.6c-3.7-3.4-5-13.4-9.7-16.6c-0.8,0.6-1,1.5-2.5,1.7c-4.1-2.5-7.4-6.7-12.4-7.4
		c-0.5,1,0.3,1.5,0.8,2.4c-1.2,0.8-1-1.1-2-0.7c0.5,3.9-1.6,8.2-1.6,12.7c0.1,4.4,2.7,9.9-1.1,13c-4-3-0.3-9.3-1.1-14.5
		c-0.2-1.1-1.1-1.9-1.4-3c-0.8-2.9,0.2-7.4-2.8-8.7c-2.4,3.6-6.3,7-7.8,11.2c-0.5,1.5,0.1,4.2-2,4.6c1.4-5.8,1.8-12.1,4-17.4
		c-4.4-7.9-10.4-2.6-14.2,1.9c-1.5,1.8-3.2,3-4,3.9c-1.3,1.6-1.7,4.3-2.8,6.1c-2.1,3.1-4.6,5.5-5.4,7.8c-0.4,1.4,0.1,3-0.3,4.5
		c-0.5,1.9-2.6,3.8-3.8,6c-1.4,2.6-1.9,5.7-3.2,7.6c-1,1.5-3,2.1-4.1,3.5c-3.8,4.6-5.7,10.9-10,13.7c-1.5-0.1-2.4-1.3-2.9-3.5
		c1.6-4.4,5.8-7.5,7.5-12c0.5-1.4,0-3.2,0.7-4.6c1.1-2.1,3.4-2.6,5.2-4.3c2.1-2,2.9-5.4,4.8-8.1c1-1.4,2.7-2.1,3.7-3.4
		c5.7-7.2,8.1-17.2,13.4-23.5c-0.6-2.5,1.3-5.2-1.1-7.5c-1.5,1-3.9,1.5-4.2,3.1c-2.1-4.6-5.6-6.7-10-6.8c-3.7,2.8-8.9,7.8-13.6,7.9
		c-1.7-3.8,2.8-4.6,5.1-6c5.6-3.5,12.1-8.9,9.2-14.8c0.6-1.1,2-0.2,3.6-1.1c1.1-2.4-1.6-6-3.2-7.3c-5.5-4.5-17.1,0.8-18.3-6.8
		c7.5-8.1,15.7,5.6,25.3-0.2c1.8-3.1,3.2-8.6-2.1-9.4c-0.8-2.2,2.9-2,2.2-4.2c0.1-1.7-1.3-0.4-1.4-1.7c0.6-0.2,1.4-0.4,0.9-1.2
		c-0.8-5.7-7-12.8-1.7-14.8c2.4,2.4,2.5,9.2,7.7,6.3c1-4.8-3.5-7.5-4.7-12c-1.5-1.8-6.6-6-3.6-8.5c6.5,4,8.1,17.3,16,18.5
		c1.8-3.3,1.6-10.7,0.8-15.1c-0.6-3.7-6.6-13.8-2.3-18c4.2-4.2,9.8,3.2,10.6,7.1c1.2,6.3-6.7,12.3-5.2,19.1c0.4,1.7,1.7,5.1,3.1,6.9
		c1.4,1.7,6.9,5.8,10.1,6.8c3.8,1.2,6.5,2,10.6,0.5c6-6.1,12.7-10.5,15.6-18.1c1-2.7,0.4-7.1,4.6-7.6c2.2,2.4,0,5.2-1.8,6.7
		c-1.3,4.3-3,8.4-5.3,12.2c0.2,1.6,0.5,3.3,1.3,5.3c2,1.1,4,2.1,5.1,4.9c0.8,0.4,1.5-0.9,3.2-1c1.1,0.5,1.5,2.2,2.9,2.1
		c6.5-1.1,10.9-3.9,16.9-5.9c5.4-1.8,7.2-6.4,11.7-8.5c4.8-2.3,6.7-4.1,10.7-4.7c2,1,2.3,3.1,1.6,5.1c-5.9,3.3-7,8.5-13.5,9.6
		c-1.5,0.2-3.2-0.6-4.9-0.2c-5.2,1.3-9.7,6.3-15.2,8.4c0,3.2-3,4.9-5.2,6.9c0.7,1.2,1.6,1,1.3,2.6c-0.5,1-2.3,1.3-2.3,2.5
		c0.9,0.5,0.7,3.4,2.5,2.3c0.9,1.4-1.7,1.5-0.2,2.2c4.3,2.5,9.7-4.6,13.4-1.7c-0.5,5.5-11.2,1.8-11.8,6.8c1.7,0.6,4.5-1.1,5.2,1.4
		c-2.9,1.4-5.8-1-8.8-0.2c-1.8,0.5-3.3,2.2-5.2,3c-0.7,0.3-4.9-0.1-4.5,2.3c0.7-0.1,1.6-1.7,2.4-0.8c-1.1,0.7-2.8,1-2.8,2.2
		c2.3,2.7,5.7,3.1,9,3.7C22.5,4.4,35.5,9.5,48.7,14.3c0.4-0.1,0.4-0.5,0.7-0.6c-0.2-0.5-0.1-0.9,0-1.3c1.9-0.6-0.2,1.1,0.1,1.7
		c4.9,4.5,11.8,4.6,18.2,6.4c6.8,1.9,14.2,6.9,21.1,9.8c5.1,2.2,10,5,14.9,7C105.9,38.2,109.8,37.8,108.6,41.9z M-72.7,78.6
		c-1.9,2.3-2.1,5.5-4,7.8C-76.3,83.5-74.6,79.6-72.7,78.6z M-62.4,60.4c-1,0.9-0.4,2.6-2,3.3C-64.5,62.4-62.9,60.2-62.4,60.4z
		 M-56.5-26.2c-2.1-0.2-6.4,0.5-6.8-0.9C-61.1-26.7-58.2-27.7-56.5-26.2z M-112.9-10.6c1.8-0.2,2.9,0.4,2.8,2.1
		C-111.9-8.3-112.8-8.9-112.9-10.6z M108-29.3c1-0.9,1.6-0.3,3.3-0.3c0.6,1.4,1.6,2.3,1.6,4.2C110.3-24.4,107.8-26.3,108-29.3z"/>
</symbol>
<use xlink:href="#Vuil_x2C__vectorpakket_10"  width="225.7" height="172.8" id="XMLID_2_" x="-112.9" y="-86.4" transform="matrix(4.6822 0 0 -4.6822 639.6653 393.5647)" style="overflow:visible;"/>
<path id="XMLID_6_" class="st1" d="M493.4,642.9c-38.5-6.8-73.6-27-99-57c-25.7-30.3-39.8-68.9-39.8-108.7
	c0-92.8,75.5-168.3,168.3-168.3c39.8,0,78.4,14.1,108.7,39.8c30,25.4,50.2,60.5,57,99l0.9,5.1l-191,191L493.4,642.9z"/>
<path id="XMLID_72_" class="st2" d="M678.9,449.4L495.2,633.1C421,620,364.6,555.2,364.6,477.2c0-87.4,70.9-158.3,158.3-158.3
	C600.9,318.9,665.7,375.2,678.9,449.4z"/>
<path id="XMLID_71_" class="st3" d="M493.2,605.7c0-87.5,70.9-158.3,158.3-158.3c9.5,0,18.8,0.8,27.8,2.4L495.6,633.5
	C494,624.5,493.2,615.2,493.2,605.7z"/>
<path id="XMLID_68_" class="st3" d="M523.8,645.5c-9.9,0-19.7-0.9-29.4-2.6l-18.9-3.4l209.8-209.8l3.4,18.9
	c1.7,9.6,2.6,19.5,2.6,29.4C691.3,570.4,616.2,645.5,523.8,645.5z"/>
<path id="XMLID_67_" class="st4" d="M681.3,478c0,87-70.5,157.4-157.5,157.4c-9.4,0-18.6-0.8-27.6-2.4l182.6-182.6
	C680.5,459.4,681.3,468.6,681.3,478z"/>
<text style="font-family:Verdana, Geneva, sans-serif" id="XMLID_65_" transform="matrix(0.7071 -0.7071 0.7071 0.7071 521.7923 570.4995)" class="st5 st6 st7">JelloMusic</text>
<path id="XMLID_48_" class="st8" d="M659,335.5"/>
<path id="XMLID_25_" class="st8" d="M377,335.5"/>
<g id="XMLID_22_">
	<path id="XMLID_15_" d="M438.3,425.7c0.4-3.2,2.2-6.4,5-8.4c2.8-2.1,6.6-3.1,10.3-2.6l1.3,0.3c0.4,0,0.9,0.3,1.4,0.4
		c0.2,0.1,0.5,0.2,0.7,0.3l0.6,0.3c0.4,0.2,0.9,0.4,1.3,0.7c1.6,1,3.1,2.3,4.3,3.9c1.2,1.5,2.1,3.2,2.8,5c0.6,1.8,0.7,3.8,0.6,5.7
		c0,0.5-0.1,1-0.1,1.4c-0.1,0.5-0.1,1-0.3,1.4l-0.2,0.7l-0.1,0.4c-0.1,0.3,0,0.1-0.1,0.2l0,0l0,0.1l-0.1,0.1l-0.4,1.1
		c-0.8,2-1.9,3.5-3.2,4.9c-2.6,2.8-6.3,4.3-9.8,4.7c-1.8,0.2-3.5,0.1-5.3-0.1c-1.7-0.3-3.4-0.8-4.9-1.5c-1.7-0.7-3-1.7-4.4-2.8
		l-0.9-0.9c-0.3-0.3-0.6-0.6-0.9-0.9c-0.3-0.3-0.6-0.6-0.8-1c-0.3-0.3-0.5-0.7-0.8-1c-1.9-2.8-3.2-6-3.9-9.3
		c-0.3-1.7-0.6-3.4-0.6-5.1v-0.2v-0.1v0c0,0,0.3-0.2,0.2-0.1l0.1-0.3l0.1-0.6c0.1-0.5,0.2-1,0.3-1.4c0.2-0.9,0.5-1.7,0.8-2.6
		c0.6-1.6,1.4-3.2,2.2-4.7c0.8-1.5,1.7-2.9,2.7-4.2c1.9-2.7,4.1-5.1,6.4-7.4c2.3-2.3,4.8-4.4,7.2-6.4c1.2-1,2.4-2.1,3.5-3.1
		c0.3-0.3,0.5-0.5,0.7-0.8c0.1-0.1,0.2-0.2,0.3-0.4l0,0l0,0c0,0,0.1-0.1,0,0.1l0.1-0.1l0.2-0.3l0.6-1l0.3-0.5l0.2-0.5
		c0.3-0.6,0.6-1.3,0.8-2c0.1-0.4,0.2-0.7,0.3-1.1l0.2-1.1c0.1-0.4,0.1-0.7,0.1-1.1l0.1-1.1c-0.1-0.8,0-1.5-0.2-2.3
		c-0.4-3-1.5-6-3.3-8.5l1,0v0c-1,1.6-1.9,3.3-2.7,4.9c-0.8,1.7-1.5,3.4-2.1,5.1c-0.6,1.7-1.1,3.5-1.5,5.2c-0.2,0.9-0.4,1.8-0.5,2.7
		l-0.1,1.3c0,0.5-0.1,0.9-0.1,1.4l0,2.7l0.1,2.8c0.1,1.8,0.2,3.7,0.3,5.6c0.3,3.7,0.6,7.4,0.9,11.1l2.1,22.3
		c0.3,3.7,0.7,7.5,0.9,11.2c0.1,1.9,0.2,3.8,0.3,5.6c0.1,1.9,0.1,3.8,0,5.9l0-0.2c0,2.4,0.1,4.8-0.3,7.5c-0.1,0.3-0.1,0.7-0.2,1
		c-0.1,0.4-0.2,0.7-0.3,1.1c-0.3,0.8-0.8,1.6-1.6,2.2c-0.8,0.6-1.8,1-2.6,1c-0.4,0.1-0.8,0-1.2,0c-0.4,0-0.7-0.1-1.1-0.1l-0.6-0.1
		l-0.4-0.1l-0.4-0.1l-0.5-0.2c-0.7-0.2-1.3-0.5-1.9-0.8c-0.6-0.3-1.2-0.7-1.7-1.1c-0.5-0.4-1.1-0.9-1.5-1.4
		c-0.2-0.3-0.5-0.5-0.6-0.8c-0.2-0.3-0.4-0.6-0.5-0.9c-0.3-0.6-0.5-1.3-0.6-2c0-0.4,0-0.7,0-1.1c0-0.3,0.1-0.7,0.1-1
		c0.1-0.3,0.2-0.6,0.3-1l0.4-0.9l0.9,0.4l-0.2,0.8c0,0.3,0,0.5,0,0.8c0,0.3,0,0.5,0.1,0.8c0.1,0.3,0.1,0.5,0.2,0.7
		c0.2,0.5,0.4,0.9,0.7,1.3c0.1,0.2,0.3,0.4,0.5,0.6c0.2,0.2,0.3,0.4,0.5,0.5c0.4,0.3,0.8,0.6,1.3,0.9c0.5,0.2,0.9,0.5,1.4,0.6
		c0.5,0.2,1,0.3,1.5,0.4l0.4,0.1l0.4,0.1l0.4,0.1c0,0,0.2,0,0.3,0c0.3,0,0.5,0,0.7,0c0.2,0,0.5,0,0.6-0.1c0.4,0,0.6-0.2,0.7-0.3
		c0.1-0.1,0.2-0.4,0.4-0.7c0.1-0.2,0.1-0.4,0.2-0.6c0-0.2,0.1-0.5,0.1-0.7c0.1-0.5,0.1-1.1,0.1-1.6c0-0.6,0.2-1.1,0.2-1.7l0.2-3.6v0
		l-0.2-0.2c0.1-1.7-0.1-3.5-0.2-5.3c-0.1-1.8-0.3-3.7-0.4-5.6l-0.9-11.2l-0.8-11.2c-0.3-3.7-0.5-7.5-0.7-11.2
		c-0.2-3.7-0.4-7.5-0.5-11.2c0-1.9-0.1-3.8-0.1-5.6l0-2.8l0.1-2.9c0-0.5,0.1-0.9,0.1-1.4l0.2-1.5c0.2-0.9,0.4-1.9,0.6-2.8
		c0.5-1.9,1.1-3.7,1.8-5.5c0.7-1.8,1.7-3.5,2.6-5.1c1-1.7,2.4-3.2,3.4-4.7v0l0.3-0.5l0.4,0.5c1.1,1.3,1.9,2.7,2.7,4.1
		c0.8,1.5,1.4,3,1.8,4.6c0.3,0.8,0.3,1.6,0.5,2.5l0.1,1.3c0,0.4,0.1,0.9,0,1.3l0,1.3c0,0.4-0.1,0.9-0.2,1.3
		c-0.1,0.9-0.3,1.7-0.6,2.6l-0.2,0.7l-0.2,0.6l-0.4,1.1l-0.1,0.3l-0.1,0.1l-0.1,0.3c-0.1,0.2-0.2,0.5-0.3,0.7
		c-0.2,0.4-0.5,0.8-0.7,1.1c-0.9,1.4-1.9,2.8-2.8,4.1c-1.9,2.6-3.9,5.2-5.9,7.6c-2.1,2.4-4.1,4.7-6.3,7c-2.1,2.3-4.3,4.4-6.1,6.8
		c-0.5,0.6-0.9,1.2-1.2,1.8c-0.2,0.3-0.3,0.5-0.5,0.8c-0.1,0.2-0.1,0.4-0.2,0.6l-0.1,0.3c0,0.1,0-0.1,0,0l0,0l0,0.1l0,0.1
		c-0.4,1.4-0.6,2.9-0.5,4.5c0.1,1.5,0.4,3,0.9,4.5c0.5,1.4,1.3,2.8,2.1,4c1.7,2.5,4.3,4.4,7,5.3c2.9,1,5.9,1.1,8.7,0.4
		c2.7-0.8,5.2-2.3,6.6-4.5c0.7-1,1.3-2.3,1.6-3.3l0.3-1.2l0-0.1l0-0.1l0,0c0,0.1,0-0.2,0,0.1l0-0.2l0.1-0.5c0.1-0.3,0.1-0.6,0.1-0.9
		c0-0.3,0-0.6,0-0.9c0-0.6-0.1-1.3-0.2-1.9c-0.2-0.6-0.3-1.2-0.5-1.8c-0.3-1.2-0.7-2.5-1.3-3.6c-0.6-1.1-1.4-2.2-2.4-3
		c-1-0.9-1.9-1.5-3.3-2.1c-2.5-1-5.5-0.9-8.2,0.3C441.8,420.3,439.5,422.7,438.3,425.7z"/>
</g>
<circle id="XMLID_21_" class="st3" cx="441.1" cy="463.2" r="4.3"/>
<g id="XMLID_18_">
	<path id="XMLID_13_" d="M499.3,425.7c0.4-3.2,2.2-6.4,5-8.4c2.8-2.1,6.6-3.1,10.3-2.6l1.3,0.3c0.4,0,0.9,0.3,1.4,0.4
		c0.2,0.1,0.5,0.2,0.7,0.3l0.6,0.3c0.4,0.2,0.9,0.4,1.3,0.7c1.6,1,3.1,2.3,4.3,3.9c1.2,1.5,2.1,3.2,2.8,5c0.6,1.8,0.7,3.8,0.6,5.7
		c0,0.5-0.1,1-0.1,1.4c-0.1,0.5-0.1,1-0.3,1.4l-0.2,0.7l-0.1,0.4c-0.1,0.3,0,0.1-0.1,0.2l0,0l0,0.1l-0.1,0.1l-0.4,1.1
		c-0.8,2-1.9,3.5-3.2,4.9c-2.6,2.8-6.3,4.3-9.8,4.7c-1.8,0.2-3.5,0.1-5.3-0.1c-1.7-0.3-3.4-0.8-4.9-1.5c-1.7-0.7-3-1.7-4.4-2.8
		l-0.9-0.9c-0.3-0.3-0.6-0.6-0.9-0.9c-0.3-0.3-0.6-0.6-0.8-1c-0.3-0.3-0.5-0.7-0.8-1c-1.9-2.8-3.2-6-3.9-9.3
		c-0.3-1.7-0.6-3.4-0.6-5.1v-0.2v-0.1v0c0,0,0.3-0.2,0.2-0.1l0.1-0.3l0.1-0.6c0.1-0.5,0.2-1,0.3-1.4c0.2-0.9,0.5-1.7,0.8-2.6
		c0.6-1.6,1.4-3.2,2.2-4.7c0.8-1.5,1.7-2.9,2.7-4.2c1.9-2.7,4.1-5.1,6.4-7.4c2.3-2.3,4.8-4.4,7.2-6.4c1.2-1,2.4-2.1,3.5-3.1
		c0.3-0.3,0.5-0.5,0.7-0.8c0.1-0.1,0.2-0.2,0.3-0.4l0,0l0,0c0,0,0.1-0.1,0,0.1l0.1-0.1l0.2-0.3l0.6-1l0.3-0.5l0.2-0.5
		c0.3-0.6,0.6-1.3,0.8-2c0.1-0.4,0.2-0.7,0.3-1.1l0.2-1.1c0.1-0.4,0.1-0.7,0.1-1.1l0.1-1.1c-0.1-0.8,0-1.5-0.2-2.3
		c-0.4-3-1.5-6-3.3-8.5l1,0v0c-1,1.6-1.9,3.3-2.7,4.9c-0.8,1.7-1.5,3.4-2.1,5.1c-0.6,1.7-1.1,3.5-1.5,5.2c-0.2,0.9-0.4,1.8-0.5,2.7
		l-0.1,1.3c0,0.5-0.1,0.9-0.1,1.4l0,2.7l0.1,2.8c0.1,1.8,0.2,3.7,0.3,5.6c0.3,3.7,0.6,7.4,0.9,11.1l2.1,22.3
		c0.3,3.7,0.7,7.5,0.9,11.2c0.1,1.9,0.2,3.8,0.3,5.6c0.1,1.9,0.1,3.8,0,5.9l0-0.2c0,2.4,0.1,4.8-0.3,7.5c-0.1,0.3-0.1,0.7-0.2,1
		c-0.1,0.4-0.2,0.7-0.3,1.1c-0.3,0.8-0.8,1.6-1.6,2.2c-0.8,0.6-1.8,1-2.6,1c-0.4,0.1-0.8,0-1.2,0c-0.4,0-0.7-0.1-1.1-0.1l-0.6-0.1
		l-0.4-0.1l-0.4-0.1l-0.5-0.2c-0.7-0.2-1.3-0.5-1.9-0.8c-0.6-0.3-1.2-0.7-1.7-1.1c-0.5-0.4-1.1-0.9-1.5-1.4
		c-0.2-0.3-0.5-0.5-0.6-0.8c-0.2-0.3-0.4-0.6-0.5-0.9c-0.3-0.6-0.5-1.3-0.6-2c0-0.4,0-0.7,0-1.1c0-0.3,0.1-0.7,0.1-1
		c0.1-0.3,0.2-0.6,0.3-1l0.4-0.9l0.9,0.4l-0.2,0.8c0,0.3,0,0.5,0,0.8c0,0.3,0,0.5,0.1,0.8c0.1,0.3,0.1,0.5,0.2,0.7
		c0.2,0.5,0.4,0.9,0.7,1.3c0.1,0.2,0.3,0.4,0.5,0.6c0.2,0.2,0.3,0.4,0.5,0.5c0.4,0.3,0.8,0.6,1.3,0.9c0.5,0.2,0.9,0.5,1.4,0.6
		c0.5,0.2,1,0.3,1.5,0.4l0.4,0.1l0.4,0.1l0.4,0.1c0,0,0.2,0,0.3,0c0.3,0,0.5,0,0.7,0c0.2,0,0.5,0,0.6-0.1c0.4,0,0.6-0.2,0.7-0.3
		c0.1-0.1,0.2-0.4,0.4-0.7c0.1-0.2,0.1-0.4,0.2-0.6c0-0.2,0.1-0.5,0.1-0.7c0.1-0.5,0.1-1.1,0.1-1.6c0-0.6,0.2-1.1,0.2-1.7l0.2-3.6v0
		l-0.2-0.2c0.1-1.7-0.1-3.5-0.2-5.3c-0.1-1.8-0.3-3.7-0.4-5.6l-0.9-11.2l-0.8-11.2c-0.3-3.7-0.5-7.5-0.7-11.2
		c-0.2-3.7-0.4-7.5-0.5-11.2c0-1.9-0.1-3.8-0.1-5.6l0-2.8l0.1-2.9c0-0.5,0.1-0.9,0.1-1.4l0.2-1.5c0.2-0.9,0.4-1.9,0.6-2.8
		c0.5-1.9,1.1-3.7,1.8-5.5c0.7-1.8,1.7-3.5,2.6-5.1c1-1.7,2.4-3.2,3.4-4.7v0l0.3-0.5l0.4,0.5c1.1,1.3,1.9,2.7,2.7,4.1
		c0.8,1.5,1.4,3,1.8,4.6c0.3,0.8,0.3,1.6,0.5,2.5l0.1,1.3c0,0.4,0.1,0.9,0,1.3l0,1.3c0,0.4-0.1,0.9-0.2,1.3
		c-0.1,0.9-0.3,1.7-0.6,2.6l-0.2,0.7l-0.2,0.6l-0.4,1.1l-0.1,0.3l-0.1,0.1l-0.1,0.3c-0.1,0.2-0.2,0.5-0.3,0.7
		c-0.2,0.4-0.5,0.8-0.7,1.1c-0.9,1.4-1.9,2.8-2.8,4.1c-1.9,2.6-3.9,5.2-5.9,7.6c-2.1,2.4-4.1,4.7-6.3,7c-2.1,2.3-4.3,4.4-6.1,6.8
		c-0.5,0.6-0.9,1.2-1.2,1.8c-0.2,0.3-0.3,0.5-0.5,0.8c-0.1,0.2-0.1,0.4-0.2,0.6l-0.1,0.3c0,0.1,0-0.1,0,0l0,0l0,0.1l0,0.1
		c-0.4,1.4-0.6,2.9-0.5,4.5c0.1,1.5,0.4,3,0.9,4.5c0.5,1.4,1.3,2.8,2.1,4c1.7,2.5,4.3,4.4,7,5.3c2.9,1,5.9,1.1,8.7,0.4
		c2.7-0.8,5.2-2.3,6.6-4.5c0.7-1,1.3-2.3,1.6-3.3l0.3-1.2l0-0.1l0-0.1l0,0c0,0.1,0-0.2,0,0.1l0-0.2l0.1-0.5c0.1-0.3,0.1-0.6,0.1-0.9
		c0-0.3,0-0.6,0-0.9c0-0.6-0.1-1.3-0.2-1.9c-0.2-0.6-0.3-1.2-0.5-1.8c-0.3-1.2-0.7-2.5-1.3-3.6c-0.6-1.1-1.4-2.2-2.4-3
		c-1-0.9-1.9-1.5-3.3-2.1c-2.5-1-5.5-0.9-8.2,0.3C502.8,420.3,500.5,422.7,499.3,425.7z"/>
</g>
<g id="XMLID_7_">
	<path id="XMLID_11_" d="M470.3,384.7c0.4-3.2,2.2-6.4,5-8.4c2.8-2.1,6.6-3.1,10.3-2.6l1.3,0.3c0.4,0,0.9,0.3,1.4,0.4
		c0.2,0.1,0.5,0.2,0.7,0.3l0.6,0.3c0.4,0.2,0.9,0.4,1.3,0.7c1.6,1,3.1,2.3,4.3,3.9c1.2,1.5,2.1,3.2,2.8,5c0.6,1.8,0.7,3.8,0.6,5.7
		c0,0.5-0.1,1-0.1,1.4c-0.1,0.5-0.1,1-0.3,1.4l-0.2,0.7l-0.1,0.4c-0.1,0.3,0,0.1-0.1,0.2l0,0l0,0.1l-0.1,0.1l-0.4,1.1
		c-0.8,2-1.9,3.5-3.2,4.9c-2.6,2.8-6.3,4.3-9.8,4.7c-1.8,0.2-3.5,0.1-5.3-0.1c-1.7-0.3-3.4-0.8-4.9-1.5c-1.7-0.7-3-1.7-4.4-2.8
		l-0.9-0.9c-0.3-0.3-0.6-0.6-0.9-0.9c-0.3-0.3-0.6-0.6-0.8-1c-0.3-0.3-0.5-0.7-0.8-1c-1.9-2.8-3.2-6-3.9-9.3
		c-0.3-1.7-0.6-3.4-0.6-5.1v-0.2v-0.1v0c0,0,0.3-0.2,0.2-0.1l0.1-0.3l0.1-0.6c0.1-0.5,0.2-1,0.3-1.4c0.2-0.9,0.5-1.7,0.8-2.6
		c0.6-1.6,1.4-3.2,2.2-4.7c0.8-1.5,1.7-2.9,2.7-4.2c1.9-2.7,4.1-5.1,6.4-7.4c2.3-2.3,4.8-4.4,7.2-6.4c1.2-1,2.4-2.1,3.5-3.1
		c0.3-0.3,0.5-0.5,0.7-0.8c0.1-0.1,0.2-0.2,0.3-0.4l0,0l0,0c0,0,0.1-0.1,0,0.1l0.1-0.1l0.2-0.3l0.6-1l0.3-0.5l0.2-0.5
		c0.3-0.6,0.6-1.3,0.8-2c0.1-0.4,0.2-0.7,0.3-1.1l0.2-1.1c0.1-0.4,0.1-0.7,0.1-1.1l0.1-1.1c-0.1-0.8,0-1.5-0.2-2.3
		c-0.4-3-1.5-6-3.3-8.5l1,0v0c-1,1.6-1.9,3.3-2.7,4.9c-0.8,1.7-1.5,3.4-2.1,5.1c-0.6,1.7-1.1,3.5-1.5,5.2c-0.2,0.9-0.4,1.8-0.5,2.7
		l-0.1,1.3c0,0.5-0.1,0.9-0.1,1.4l0,2.7l0.1,2.8c0.1,1.8,0.2,3.7,0.3,5.6c0.3,3.7,0.6,7.4,0.9,11.1l2.1,22.3
		c0.3,3.7,0.7,7.5,0.9,11.2c0.1,1.9,0.2,3.8,0.3,5.6c0.1,1.9,0.1,3.8,0,5.9l0-0.2c0,2.4,0.1,4.8-0.3,7.5c-0.1,0.3-0.1,0.7-0.2,1
		c-0.1,0.4-0.2,0.7-0.3,1.1c-0.3,0.8-0.8,1.6-1.6,2.2c-0.8,0.6-1.8,1-2.6,1c-0.4,0.1-0.8,0-1.2,0c-0.4,0-0.7-0.1-1.1-0.1l-0.6-0.1
		l-0.4-0.1l-0.4-0.1l-0.5-0.2c-0.7-0.2-1.3-0.5-1.9-0.8c-0.6-0.3-1.2-0.7-1.7-1.1c-0.5-0.4-1.1-0.9-1.5-1.4
		c-0.2-0.3-0.5-0.5-0.6-0.8c-0.2-0.3-0.4-0.6-0.5-0.9c-0.3-0.6-0.5-1.3-0.6-2c0-0.4,0-0.7,0-1.1c0-0.3,0.1-0.7,0.1-1
		c0.1-0.3,0.2-0.6,0.3-1l0.4-0.9l0.9,0.4l-0.2,0.8c0,0.3,0,0.5,0,0.8c0,0.3,0,0.5,0.1,0.8c0.1,0.3,0.1,0.5,0.2,0.7
		c0.2,0.5,0.4,0.9,0.7,1.3c0.1,0.2,0.3,0.4,0.5,0.6c0.2,0.2,0.3,0.4,0.5,0.5c0.4,0.3,0.8,0.6,1.3,0.9c0.5,0.2,0.9,0.5,1.4,0.6
		c0.5,0.2,1,0.3,1.5,0.4l0.4,0.1l0.4,0.1l0.4,0.1c0,0,0.2,0,0.3,0c0.3,0,0.5,0,0.7,0c0.2,0,0.5,0,0.6-0.1c0.4,0,0.6-0.2,0.7-0.3
		c0.1-0.1,0.2-0.4,0.4-0.7c0.1-0.2,0.1-0.4,0.2-0.6c0-0.2,0.1-0.5,0.1-0.7c0.1-0.5,0.1-1.1,0.1-1.6c0-0.6,0.2-1.1,0.2-1.7l0.2-3.6v0
		l-0.2-0.2c0.1-1.7-0.1-3.5-0.2-5.3c-0.1-1.8-0.3-3.7-0.4-5.6l-0.9-11.2l-0.8-11.2c-0.3-3.7-0.5-7.5-0.7-11.2
		c-0.2-3.7-0.4-7.5-0.5-11.2c0-1.9-0.1-3.8-0.1-5.6l0-2.8l0.1-2.9c0-0.5,0.1-0.9,0.1-1.4l0.2-1.5c0.2-0.9,0.4-1.9,0.6-2.8
		c0.5-1.9,1.1-3.7,1.8-5.5c0.7-1.8,1.7-3.5,2.6-5.1c1-1.7,2.4-3.2,3.4-4.7v0l0.3-0.5l0.4,0.5c1.1,1.3,1.9,2.7,2.7,4.1
		c0.8,1.5,1.4,3,1.8,4.6c0.3,0.8,0.3,1.6,0.5,2.5l0.1,1.3c0,0.4,0.1,0.9,0,1.3l0,1.3c0,0.4-0.1,0.9-0.2,1.3
		c-0.1,0.9-0.3,1.7-0.6,2.6l-0.2,0.7l-0.2,0.6l-0.4,1.1l-0.1,0.3l-0.1,0.1l-0.1,0.3c-0.1,0.2-0.2,0.5-0.3,0.7
		c-0.2,0.4-0.5,0.8-0.7,1.1c-0.9,1.4-1.9,2.8-2.8,4.1c-1.9,2.6-3.9,5.2-5.9,7.6c-2.1,2.4-4.1,4.7-6.3,7c-2.1,2.3-4.3,4.4-6.1,6.8
		c-0.5,0.6-0.9,1.2-1.2,1.8c-0.2,0.3-0.3,0.5-0.5,0.8c-0.1,0.2-0.1,0.4-0.2,0.6l-0.1,0.3c0,0.1,0-0.1,0,0l0,0l0,0.1l0,0.1
		c-0.4,1.4-0.6,2.9-0.5,4.5c0.1,1.5,0.4,3,0.9,4.5c0.5,1.4,1.3,2.8,2.1,4c1.7,2.5,4.3,4.4,7,5.3c2.9,1,5.9,1.1,8.7,0.4
		c2.7-0.8,5.2-2.3,6.6-4.5c0.7-1,1.3-2.3,1.6-3.3l0.3-1.2l0-0.1l0-0.1l0,0c0,0.1,0-0.2,0,0.1l0-0.2l0.1-0.5c0.1-0.3,0.1-0.6,0.1-0.9
		c0-0.3,0-0.6,0-0.9c0-0.6-0.1-1.3-0.2-1.9c-0.2-0.6-0.3-1.2-0.5-1.8c-0.3-1.2-0.7-2.5-1.3-3.6c-0.6-1.1-1.4-2.2-2.4-3
		c-1-0.9-1.9-1.5-3.3-2.1c-2.5-1-5.5-0.9-8.2,0.3C473.8,379.3,471.5,381.7,470.3,384.7z"/>
</g>
<circle id="XMLID_5_" class="st3" cx="502.1" cy="463.2" r="4.3"/>
<circle id="XMLID_4_" class="st3" cx="473.1" cy="423.2" r="4.3"/>
</svg>